<?xml version="1.0" encoding="UTF-8" standalone="no"?>
<svg
   version="1.1"
   style="display: block;"
   viewBox="0 0 1164 784"
   width="291"
   height="196"
   preserveAspectRatio="none"
   id="svg51"
   sodipodi:docname="coney-vector.svg"
   inkscape:version="1.4.2 (f4327f4, 2025-05-13)"
   inkscape:export-filename="full-logo-coney-2025png.png"
   inkscape:export-xdpi="337.81442"
   inkscape:export-ydpi="337.81442"
   xmlns:inkscape="http://www.inkscape.org/namespaces/inkscape"
   xmlns:sodipodi="http://sodipodi.sourceforge.net/DTD/sodipodi-0.dtd"
   xmlns="http://www.w3.org/2000/svg"
   xmlns:svg="http://www.w3.org/2000/svg">
  <sodipodi:namedview
     id="namedview51"
     pagecolor="#000000"
     bordercolor="#ffffff"
     borderopacity="0"
     inkscape:showpageshadow="2"
     inkscape:pageopacity="0.0"
     inkscape:pagecheckerboard="0"
     inkscape:deskcolor="#d1d1d1"
     inkscape:zoom="4"
     inkscape:cx="127.5"
     inkscape:cy="95"
     inkscape:window-width="3063"
     inkscape:window-height="1230"
     inkscape:window-x="846"
     inkscape:window-y="32"
     inkscape:window-maximized="0"
     inkscape:current-layer="svg51"
     inkscape:export-bgcolor="#ffffff00" />
  <defs
     id="defs4">
    <linearGradient
       id="Gradient1"
       gradientUnits="userSpaceOnUse"
       x1="95.0632"
       y1="147.705"
       x2="76.9826"
       y2="140.15"
       gradientTransform="matrix(0.98741374,0,0,0.98741374,6.650411,25.019998)">
      <stop
         class="stop0"
         offset="0"
         stop-opacity="1"
         stop-color="rgb(55,64,65)"
         id="stop1" />
      <stop
         class="stop1"
         offset="1"
         stop-opacity="1"
         stop-color="rgb(80,75,71)"
         id="stop2" />
    </linearGradient>
    <linearGradient
       id="Gradient2"
       gradientUnits="userSpaceOnUse"
       x1="105.489"
       y1="178.176"
       x2="108.539"
       y2="314.872"
       gradientTransform="matrix(0.98741374,0,0,0.98741374,6.650411,25.019998)">
      <stop
         class="stop0"
         offset="0"
         stop-opacity="1"
         stop-color="rgb(69,70,69)"
         id="stop3" />
      <stop
         class="stop1"
         offset="1"
         stop-opacity="1"
         stop-color="rgb(97,96,96)"
         id="stop4" />
    </linearGradient>
  </defs>
  <path
     fill="#f0683a"
     d="m 871.48759,347.25161 c 16.70013,-3.06395 38.02234,2.45175 51.60619,12.64087 21.73199,16.30023 25.22151,36.64194 28.86408,61.76372 -27.38592,-0.78895 -55.78196,0.0227 -83.29822,-0.30906 -6.13579,-0.0741 -34.78757,-0.46508 -39.09862,0.62404 -1.37547,5.33895 2.90102,25.52465 4.38708,31.47875 10.21183,40.93028 61.39936,67.31891 92.94723,30.98603 5.1464,-5.92646 8.2291,-11.83909 11.96252,-18.62953 0.59146,-2.3382 0.73759,-2.67688 2.01827,-4.71984 2.97606,-1.03975 1.69243,-1.01802 4.85215,0.079 7.9783,7.60111 5.17109,15.72555 1.39028,23.85394 -10.87439,23.37505 -27.16474,47.08878 -54.5398,51.43044 -20.61917,3.38386 -41.73502,-1.60949 -58.65336,-13.87119 -42.44398,-31.34446 -45.92067,-102.40962 -17.09411,-144.58206 12.67346,-18.54165 32.78609,-27.46985 54.65631,-30.7451 z m -42.48643,59.6309 c 15.51424,0.66256 31.73449,0.43841 47.3139,0.44335 9.44165,-0.0356 23.14695,-0.42557 32.12847,0.57863 -5.53149,-31.47678 -12.76825,-44.09099 -46.79255,-42.78069 -20.3506,4.52532 -28.77324,23.19138 -32.64982,41.75871 z"
     id="path4"
     style="stroke-width:0.987414" />
  <path
     fill="#f0683a"
     d="m 744.30377,458.09571 c -0.56777,-22.50217 2.40929,-71.63588 -3.32561,-93.98401 -1.58579,-6.1822 -20.85122,-8.84822 -23.5281,-13.24714 1.76945,-5.44954 56.21643,-3.32166 63.35346,-1.43768 l 0.72081,2.10616 c -5.73984,4.73761 -14.84083,4.71095 -20.73372,9.93436 -6.47249,5.73787 -3.07678,48.07323 -3.76105,58.19027 0.34855,24.05537 0.44038,48.11272 0.27351,72.17007 -0.0128,11.35131 0.50852,34.39755 -1.16219,44.93523 -2.48433,0.57467 -2.00741,0.2824 -4.76723,-0.69317 -0.64774,-1.50679 -20.70409,-24.98255 -23.03044,-27.83815 l -63.91035,-78.59221 c -9.84452,-12.1057 -24.64782,-31.38396 -34.84386,-42.17343 l -0.941,0.49371 0.61812,4.1965 c 2.49223,34.77672 -1.86523,79.95287 1.13256,112.95322 2.92472,12.48585 5.70133,14.86947 17.79023,17.60658 1.62726,0.28437 4.92325,1.34091 6.66208,1.85041 2.34511,2.61665 2.59888,3.25847 3.90819,6.55248 l -0.9884,1.51864 c -11.19629,-0.5095 -60.37048,1.60356 -65.97899,-4.28439 l 0.27648,-2.03209 c 4.37128,-4.28341 9.18294,-4.53618 15.31676,-5.90968 6.16245,-4.63097 8.55594,-7.71268 9.37648,-15.67321 1.66577,-16.16693 1.09702,-33.04973 1.08813,-49.27195 0.0474,-28.03169 -0.0504,-56.06239 -0.29228,-84.09309 -7.62974,-10.88031 -10.07655,-10.38167 -21.09017,-17.1336 -2.2276,-1.3656 -3.31771,-2.17034 -3.80154,-4.472 3.90325,-3.28414 53.95723,-2.03407 62.62079,-1.83264 9.7201,7.5705 37.24525,43.97447 46.6474,55.93205 12.1758,15.48462 31.72659,38.62071 42.36993,54.22876 z"
     id="path5"
     style="stroke-width:0.987414" />
  <path
     fill="#f66e46"
     d="m 751.37365,536.0698 c 1.7961,-7.18047 1.16021,-15.0235 1.75068,-22.49131 2.64331,-33.44271 -3.5774,-66.65141 -2.49815,-100.00724 0.35448,-10.94745 0.0198,-35.65156 3.96249,-45.23836 3.61097,1.14639 -1.57493,45.93943 2.44089,51.32478 0.34855,24.05537 0.44038,48.11272 0.27351,72.17007 -0.0128,11.35131 0.50852,34.39755 -1.16219,44.93523 -2.48433,0.57467 -2.00741,0.2824 -4.76723,-0.69317 z"
     id="path6"
     style="stroke-width:0.987414" />
  <path
     fill="#f66e46"
     d="m 630.39868,505.10944 c -0.63886,1.60455 -0.75438,1.78426 -1.99852,2.98002 -5.50879,-6.64036 -7.21899,-109.84978 0.86596,-115.93324 2.49223,34.77672 -1.86523,79.95287 1.13256,112.95322 z"
     id="path7"
     style="stroke-width:0.987414" />
  <path
     fill="#f0683a"
     d="m 643.19754,227.82688 c -2.7144,-1.13454 -15.28912,-5.76353 -16.54807,-6.7628 3.76501,-2.87337 58.39367,-1.45446 67.60526,-1.40607 l 102.78483,-0.23402 c 0.81462,14.83984 0.8788,28.57575 0.90645,43.39683 -3.14393,-5.5779 -6.86648,-11.97436 -9.77935,-17.66384 -10.03607,-19.59819 -25.1356,-13.95413 -42.87647,-15.97241 l -1.33498,1.0358 c -0.0938,7.29896 0.77117,14.52782 1.05357,21.83764 0.25179,6.52681 -2.74106,16.00993 1.30734,21.33308 13.62433,4.74452 17.20173,-22.19706 22.2484,-26.28496 4.95188,5.04174 5.28662,58.64448 2.14467,64.27175 -4.38906,-0.67934 -13.15631,-34.83991 -25.14055,-28.09686 -2.11109,4.05531 -0.84522,38.8577 -0.78302,45.99275 54.54079,7.9625 47.31193,-26.93862 59.51242,-31.24079 1.52555,2.49816 -1.36165,42.26921 -6.74305,41.97003 -31.38692,-1.74476 -76.7418,4.9262 -106.50738,-2.81117 -0.51247,-0.13429 -1.02296,-0.2745 -1.53148,-0.42064 8.58655,-3.44509 17.02992,-2.47841 21.86331,-7.65739 1.86424,-8.17381 1.75365,-91.0119 -0.0336,-99.5787 -7.68603,-10.09137 -36.22525,-5.17109 -35.68513,2.33029 1.09702,15.21012 -3.1143,89.53967 1.51864,98.40269 4.26069,4.62406 12.71394,0.57567 14.88526,8.27453 -7.19726,2.86745 -60.6193,2.82104 -65.61166,-1.76155 8.38018,-5.53149 15.75221,-2.83091 17.3143,-11.32366 2.29376,-12.46906 -0.67243,-29.90185 1.18588,-41.90584 0.95187,-2.19205 0.35053,-2.69958 -0.19156,-5.44459 l -0.16095,-5.36759 c -0.49469,-14.19111 0.32782,-31.25757 -1.40311,-44.91251 z"
     id="path8"
     style="stroke-width:0.987414" />
  <path
     fill="#f0683a"
     d="m 441.86585,219.15443 c 11.08273,0.77512 27.9132,0.392 39.31092,0.37916 l 68.12167,-0.1333 c 1.65491,6.90894 3.21798,28.60735 0.9568,34.63946 l -1.32017,0.25179 c -4.02667,-3.36708 -9.21158,-14.9603 -13.37155,-19.98031 -4.60826,-5.56013 -16.397,-5.01903 -24.26175,-5.93535 1.4752,8.16789 1.11183,42.42226 1.03185,52.64495 -0.079,10.07459 0.92126,39.14898 0.0227,47.98239 3.6248,4.38214 13.03485,3.8519 14.26813,9.2965 -5.52063,2.5021 -58.8627,2.5337 -62.35715,-2.21872 4.16787,-4.35548 16.18173,-1.39226 16.39304,-10.24541 0.22217,-9.30835 0.12046,-18.67989 0.14219,-28.00108 0.17279,-23.36122 0.08,-46.72343 -0.28043,-70.08169 -5.10295,1.30537 -13.78232,2.26316 -18.19606,4.02569 -6.36585,2.54259 -12.51843,17.43674 -18.35405,19.84504 -3.25945,-4.30019 -2.13182,-25.60067 -2.10615,-32.46912 z"
     id="path9"
     style="stroke-width:0.987414" />
  <path
     fill="#f66e46"
     d="m 512.35633,329.00322 c -1.95508,0.0168 -2.17231,-0.0543 -3.80747,-1.12961 -1.43767,-7.55075 -1.40509,-95.59744 0.29623,-100.96996 l 1.38929,-0.44631 1.06739,1.91854 c 1.4752,8.16789 1.11183,42.42226 1.03185,52.64495 -0.079,10.07459 0.92126,39.14898 0.0227,47.98239 z"
     id="path10"
     style="stroke-width:0.987414" />
  <path
     fill="#f0683a"
     d="m 553.69243,219.80711 c 10.86945,-0.67342 20.99735,-0.35745 31.87372,-0.11257 8.51842,-0.21427 29.9838,-1.57492 36.42766,1.51371 l 0.62701,1.64009 c -2.3609,2.21082 -10.62951,2.73217 -14.42118,3.23773 -2.48828,13.55719 -2.72328,31.86285 -1.53147,45.66394 0.0908,1.05554 7.56556,1.26092 8.80378,1.28758 l -0.7534,1.3261 c -3.72551,0.50062 -5.13949,0.50062 -8.24984,2.51198 l -2.31154,4.6053 1.39621,2.93953 c 2.79734,12.09384 -1.66182,29.76361 1.55024,41.82289 1.78129,6.68677 8.21034,7.09556 14.12396,9.91759 l 0.35745,1.36954 c -6.53372,4.53421 -60.19176,6.0094 -63.14808,-2.49816 13.1958,-5.9699 16.49475,3.00569 15.8401,-20.44045 -0.78105,-27.96948 1.50778,-56.88589 -1.11479,-84.6569 -0.31203,-3.30488 -16.28048,-8.7633 -19.46983,-10.1279 z"
     id="path11"
     style="stroke-width:0.987414" />
  <path
     fill="#f66e46"
     d="m 585.56615,219.69454 c 8.51842,-0.21427 29.9838,-1.57492 36.42766,1.51371 l 0.62701,1.64009 c -2.3609,2.21082 -10.62951,2.73217 -14.42118,3.23773 l -0.40681,-3.03136 c -5.80303,-5.63517 -16.30812,0.58356 -22.22668,-3.36017 z"
     id="path12"
     style="stroke-width:0.987414" />
  <path
     fill="#f66e46"
     d="m 645.21804,272.73939 0.16468,5.36759 c 0.55464,2.74501 1.16989,3.25254 0.196,5.44459 -6.92031,0.85412 -31.59908,0.9499 -38.6285,0.0879 l -1.6831,0.78105 -1.42852,-2.93953 2.36504,-4.6053 c 3.18233,-2.01136 4.62902,-2.01136 8.44076,-2.51198 l 0.77082,-1.3261 c 8.30035,-0.52728 20.75389,-0.0454 29.80282,-0.2982 z"
     id="path13"
     style="stroke-width:0.998779" />
  <path
     fill="#f0683a"
     d="m 275.34544,554.59072 c 4.14911,-4.35351 37.52271,-3.36708 44.89967,-3.37597 38.89028,-0.0484 77.79241,-0.0227 116.68367,-0.0158 l 267.14578,0.0158 212.85776,-0.01 c 17.77839,9.9e-4 113.59698,-1.726 124.28088,2.24538 2.5475,3.97829 11.6317,8.68134 15.8677,11.86871 3.9299,2.95138 5.7171,7.17652 7.7907,11.64556 -5.9541,-0.0435 -26.9367,-0.56678 -31.6861,0.11651 l 0.859,3.67614 c 4.0089,-2.6275 50.4075,-2.49914 58.8598,-2.90398 15.5616,0.94693 36.6923,11.87266 40.8888,27.81742 7.7314,9.41795 5.4999,29.48121 5.4801,41.3282 -0.049,41.71428 -35.3593,51.6289 -70.3532,48.46227 -4.4039,-0.39003 -10.6838,1.09208 -14.989,0.54703 -1.5206,-0.20242 -3.0116,-0.55789 -4.4631,-1.06049 -2.903,2.29673 -1.333,2.90497 -2.2019,6.26514 -12.7067,41.94625 -63.31886,29.90511 -97.4844,29.6471 l -133.91206,0.0612 -329.26792,-9.9e-4 c -54.63854,0.005 -109.27807,0.0346 -163.91661,-0.0247 -7.63962,-0.008 -20.47501,0.63984 -26.39258,-4.71688 l -0.6043,-1.04764 c -9.257,-3.97829 -20.09781,-20.17484 -22.44194,-29.66191 -2.71538,-1.01111 -7.45991,-0.3535 -10.55742,-0.44236 -15.05707,-0.43249 -35.30004,2.91089 -48.92734,-3.98027 -5.03384,-1.65392 -11.53694,-6.48829 -15.48265,-10.00842 -21.182,-18.90305 -22.43601,-69.12785 -2.70551,-89.27702 14.17037,-14.47153 33.34101,-15.42537 52.52745,-14.4271 2.69959,0.14021 3.80154,-0.6507 5.50582,-2.52679 4.54407,-8.75441 12.47399,-16.56485 21.7389,-20.21631 z"
     id="path14"
     sodipodi:nodetypes="ccccccccccccccccccccccccccccccc"
     style="stroke-width:0.987414" />
  <path
     fill="#fece38"
     d="m 275.34544,554.59072 c 4.14911,-4.35351 37.52271,-3.36708 44.89967,-3.37597 38.89028,-0.0484 77.79241,-0.0227 116.68367,-0.0158 l 267.14578,0.0158 212.85776,-0.01 c 17.77839,9.9e-4 113.59698,-1.726 124.28088,2.24538 2.5475,3.97829 11.6317,8.68134 15.8677,11.86871 3.9299,2.95138 5.7171,7.17652 7.7907,11.64556 -5.9541,-0.0435 -26.9367,-0.56678 -31.6861,0.11651 -6.2207,-0.72081 -9.262,-4.4483 -15.7295,-5.17503 -3.3276,-0.93607 -9.4989,-1.01901 -13.1227,-1.02198 -58.26141,-0.0494 -116.56523,-0.10071 -174.82066,-0.0958 l -340.75254,0.0306 -129.29294,-0.0662 c -10.07754,-0.002 -51.88661,-0.63787 -59.21717,1.24908 -6.13086,1.20563 -10.2148,4.87585 -14.18716,5.23329 l -0.80968,-0.91138 c -6.70454,0.72278 -26.58809,2.2671 -31.64661,-1.51667 4.54407,-8.75441 12.47399,-16.56485 21.7389,-20.21631 z"
     id="path15"
     style="stroke-width:0.987414" />
  <path
     fill="rgb(240,104,58)"
     d="m 213.76143,691.04636 c -5.03384,-1.65392 -11.53694,-6.48829 -15.48265,-10.00842 -21.182,-18.90305 -22.43601,-69.12785 -2.70551,-89.27702 14.17037,-14.47153 33.34101,-15.42537 52.52745,-14.4271 2.69959,0.14021 3.80154,-0.6507 5.50582,-2.52679 5.05852,3.78377 24.94207,2.23945 31.64661,1.51667 l 0.80968,0.91138 c -1.52556,5.21848 -4.22219,8.11259 -6.97115,12.78108 -5.85635,9.94326 -10.05779,20.50266 -11.13605,32.05145 l 2.14072,2.14368 c -1.59863,14.99783 -1.72995,29.77645 -0.61813,44.82759 0.41373,5.60457 4.19355,22.6335 3.76797,26.43011 -2.71538,-1.01111 -7.45991,-0.3535 -10.55742,-0.44236 -15.05707,-0.43249 -35.30004,2.91089 -48.92734,-3.98027 z"
     id="path16"
     style="fill:#cc6829;fill-opacity:1;stroke-width:0.987414" />
  <path
     fill="#985b32"
     d="m 267.95563,622.06761 2.14072,2.14368 c -1.59863,14.99783 -1.72995,29.77645 -0.61813,44.82759 0.41373,5.60457 4.19355,22.6335 3.76797,26.43011 -2.71538,-1.01111 -7.45991,-0.3535 -10.55742,-0.44236 -15.05707,-0.43249 -35.30004,2.91089 -48.92734,-3.98027 3.72452,-0.005 7.72157,0.7771 11.70085,0.86498 14.66507,0.34658 29.33705,0.2666 43.99718,-0.23896 -2.47939,-28.53231 -7.18146,-40.23316 -1.50383,-69.60477 z"
     id="path17"
     style="stroke-width:0.987414" />
  <path
     fill="rgb(240,104,58)"
     d="m 1092.9043,577.8532 c 15.5616,0.94693 36.6923,11.87266 40.8888,27.81742 1.3922,6.98102 2.3204,14.04892 2.7647,21.15534 3.9299,58.04413 -22.1872,67.73362 -75.3199,65.61364 -4.9864,-0.19847 -8.077,0.62602 -12.1353,-2.97211 -0.8788,-4.58259 1.8168,-10.09236 2.6068,-14.65915 1.254,-7.2723 1.2244,-15.51424 1.3033,-22.83295 0.3358,-30.7372 -2.3994,-45.67579 -18.9682,-71.21821 4.0089,-2.6275 50.4075,-2.49914 58.8598,-2.90398 z"
     id="path18"
     style="fill:#cc6829;fill-opacity:1;stroke-width:0.987414" />
  <path
     fill="#82594d"
     d="m 1017.456,571.90601 c 6.4675,0.72673 9.5088,4.45422 15.7295,5.17503 l 0.859,3.67614 c 16.5688,25.54242 19.304,40.48101 18.9682,71.21821 -0.079,7.31871 -0.049,15.56065 -1.3033,22.83295 -0.79,4.56679 -3.4856,10.07656 -2.6068,14.65915 4.0583,3.59813 7.1489,2.77364 12.1353,2.97211 53.1327,2.11998 79.2498,-7.56951 75.3199,-65.61364 -0.4443,-7.10642 -1.3725,-14.17432 -2.7647,-21.15534 7.7314,9.41795 5.4999,29.48121 5.4801,41.3282 -0.049,41.71428 -35.3593,51.6289 -70.3532,48.46227 -4.4039,-0.39003 -10.6838,1.09208 -14.989,0.54703 -1.5206,-0.20242 -3.0116,-0.55789 -4.4631,-1.06049 -2.903,2.29673 -1.333,2.90497 -2.2019,6.26514 -12.7067,41.94625 -63.31886,29.90511 -97.4844,29.6471 l -133.91206,0.0612 -329.26792,-9.9e-4 c -54.63854,0.005 -109.27807,0.0346 -163.91661,-0.0247 -7.63962,-0.008 -20.47501,0.63984 -26.39258,-4.71688 16.65471,2.50112 62.58623,1.42385 81.72231,1.42682 l 156.21083,0.0197 307.96151,-0.006 c 52.97672,-0.006 106.12525,0.13528 159.11482,-0.19452 6.7539,-0.0415 13.024,-0.53518 19.4619,-2.67096 8.9065,-3.67712 19.1756,-16.40291 22.1971,-25.31728 11.7798,-34.81325 14.7223,-109.03418 -25.9394,-125.86859 z"
     id="path19"
     sodipodi:nodetypes="ccccccccccccccccccccccccccc"
     style="stroke-width:0.987414" />
  <path
     fill="#a5463d"
     d="m 300.24999,572.00179 c 7.33056,-1.88695 49.13963,-1.25106 59.21717,-1.24908 l 129.29294,0.0662 340.75254,-0.0306 c 58.25543,-0.005 116.55925,0.0464 174.82066,0.0958 3.6238,0.003 9.7951,0.0859 13.1227,1.02198 l -0.4345,1.66182 c -14.8408,-1.01013 -33.03687,-0.49667 -48.10481,-0.50457 l -77.46557,-0.12837 -236.4925,0.12738 -233.42263,-0.0612 c -35.65057,-0.008 -86.30885,-1.76155 -120.89499,0.60726 z"
     id="path20"
     style="stroke-width:0.987414" />
  <path
     fill="#82594d"
     d="m 286.06283,577.23508 c 3.97236,-0.35744 8.0563,-4.02766 14.18716,-5.23329 l 0.39101,1.60652 c -18.82603,9.6184 -29.08624,29.97097 -30.54465,50.60298 l -2.14072,-2.14368 c 1.07826,-11.54879 5.2797,-22.10819 11.13605,-32.05145 2.74896,-4.66849 5.44559,-7.5626 6.97115,-12.78108 z"
     id="path21"
     style="stroke-width:0.987414" />
  <path
     fill="#fefefe"
     d="m 881.12179,594.17811 c -3.1696,0.64281 -3.77686,0.31499 -6.85956,-0.72575 l -0.44335,-1.2945 c 2.59986,-1.47026 48.94017,-0.35645 54.46475,0.4947 18.30369,0.29227 33.91075,2.63146 47.39487,16.29825 20.7949,21.07141 20.9924,64.06439 -0.86892,84.23034 -24.44639,22.54562 -67.10168,15.04029 -97.86751,15.80652 -0.94002,0.0198 -1.97483,-0.35152 -2.81117,-0.70798 1.34584,-1.77142 3.07481,-1.91459 5.27575,-2.25525 3.51816,-0.54505 6.11604,-0.68033 8.4967,-3.82129 4.12245,-5.43966 3.43027,-88.25899 1.64305,-99.16695 -0.44927,-2.74698 -1.7803,-4.5658 -4.03852,-6.1427 -1.40706,-0.98248 -2.903,-1.85634 -4.38609,-2.71539 z"
     id="path22"
     style="stroke-width:0.987414" />
  <path
     fill="rgb(209,220,230)"
     d="m 881.12179,594.17811 c -3.1696,0.64281 -3.77686,0.31499 -6.85956,-0.72575 l -0.44335,-1.2945 c 2.59986,-1.47026 48.94017,-0.35645 54.46475,0.4947 -9.6964,0.80178 -41.49606,-1.53938 -47.16184,1.52555 z"
     id="path23"
     style="fill:#ffffff;stroke-width:0.987414" />
  <path
     fill="#f0683a"
     d="m 917.08438,597.49483 c 7.81538,0.58554 18.77074,0.90744 25.28471,5.4841 24.9322,17.51573 22.41528,68.28855 7.79464,90.3918 -8.06322,8.944 -31.35532,19.613 -32.66957,-0.0889 -0.78104,-11.72357 -0.54406,-23.31087 -0.51543,-35.0522 z"
     id="path24"
     style="stroke-width:0.987414" />
  <path
     fill="#fefefe"
     d="m 679.06732,588.06701 c 14.01041,36.29634 32.18771,73.39249 48.16703,109.00949 2.83782,6.32438 6.37671,7.98817 12.52336,10.17826 l 0.16194,1.40114 c -6.13678,1.01802 -52.10187,1.2155 -55.69112,-0.41768 l 0.27746,-1.08615 c 5.79217,-1.78525 10.27799,-1.15231 12.51547,-4.59345 1.02592,-7.83809 -5.83858,-20.1778 -9.14839,-27.92999 -12.41179,0.44237 -28.99738,0.79882 -41.23143,-0.15996 l -3.59616,7.00965 c -0.45718,-2.61961 -1.46829,-3.7107 -3.01557,-5.86425 7.34932,-18.32047 17.96303,-41.39732 26.5012,-59.3564 4.04544,-9.81884 8.38314,-18.63052 12.53621,-28.19066 z"
     id="path25"
     style="stroke-width:0.987414" />
  <path
     fill="#f0683a"
     d="m 666.53111,616.25767 c -0.57566,3.33153 -1.84646,7.88647 -0.53518,10.79737 l 1.53938,1.23328 c 5.33302,12.11655 11.69197,27.92307 17.37058,39.60911 0.72477,2.48236 1.15429,4.95188 2.96718,6.7312 -12.41179,0.44237 -28.99738,0.79882 -41.23143,-0.15996 l -3.59616,7.00965 c -0.45718,-2.61961 -1.46829,-3.7107 -3.01557,-5.86425 7.34932,-18.32047 17.96303,-41.39732 26.5012,-59.3564 z"
     id="path26"
     style="stroke-width:0.987414" />
  <path
     fill="rgb(238,254,255)"
     d="m 666.74815,615.80714 c -0.58038,3.35454 -1.86159,7.94095 -0.53956,10.87195 l 1.55199,1.2418 c -6.43193,13.09606 -12.16701,26.40489 -18.02254,39.76044 -1.14483,2.34043 -2.04675,4.33188 -3.04225,6.73892 l -3.62562,7.05807 c -0.46091,-2.63771 -1.48031,-3.73633 -3.04026,-5.90476 7.40952,-18.44702 18.11015,-41.68328 26.71824,-59.76642 z"
     id="path27"
     style="fill:#ffffff;stroke-width:0.994869" />
  <path
     fill="rgb(209,220,230)"
     d="m 685.28348,667.89743 c 0.74258,2.48236 1.18266,4.95188 3.04012,6.7312 -12.71694,0.44237 -29.71029,0.79882 -42.24512,-0.15996 1.01169,-2.39053 1.92828,-4.36832 3.09172,-6.69269 4.25314,2.0716 30.1089,2.0637 34.44702,0.73464 0.56554,-0.17576 1.12197,-0.38016 1.66626,-0.61319 z"
     id="path28"
     style="fill:#ffffff;stroke-width:0.99948" />
  <path
     fill="#fefefe"
     d="m 435.31239,589.93026 c 15.89143,-1.47224 22.70459,4.41078 37.4763,6.99681 2.42805,0.42459 4.19453,-4.65072 6.49126,-5.41695 0.66452,13.39624 1.1918,26.79841 1.58183,40.20551 -8.31106,-17.09608 -14.1763,-37.21167 -39.12725,-36.75746 -8.01978,0.14614 -19.50933,8.54606 -17.99661,17.48413 1.77636,10.49522 17.04474,17.652 25.55921,22.15954 26.03711,11.86279 52.05842,31.17463 31.83027,61.90986 -7.24071,11.00077 -19.84998,13.53546 -32.49283,15.36514 -13.21357,-0.95186 -17.28566,-4.87387 -29.27484,-6.1506 -5.962,-0.63589 -9.0378,3.03037 -13.22838,6.90597 1.25698,-14.8033 0.6043,-33.01121 0.0513,-47.81946 6.26119,13.18395 9.21455,27.92308 23.00872,36.37139 12.0267,7.36709 29.4901,9.51274 37.43384,-4.9736 8.05828,-14.69766 -8.25379,-25.2067 -19.42736,-30.75202 -23.71176,-11.71171 -53.33121,-27.63178 -36.27462,-59.07104 5.36857,-9.89388 13.80503,-13.58286 24.38912,-16.45722 z"
     id="path29"
     style="stroke-width:0.987414" />
  <path
     fill="#fefefe"
     d="m 507.86459,594.75279 c -5.35574,-0.34362 -3.94275,0.39694 -8.03459,-2.21082 l 0.47791,-1.04469 c 4.56086,-0.26759 59.31888,0.39892 59.67632,0.60035 -2.57912,3.53001 -5.41794,2.77957 -9.54039,2.53272 -2.40633,1.81783 -4.33376,3.76698 -5.69639,6.49915 -3.89732,7.81835 -3.67318,87.63001 0.13923,97.43108 0.66354,1.70428 1.52061,2.66009 3.18046,3.40757 7.64653,3.44311 26.14671,2.37275 33.8989,-0.79487 15.63471,-6.38956 19.19927,-24.56982 25.13363,-38.50716 0.17181,10.54261 -2.94052,35.22993 -4.06519,46.68985 l -65.35296,-0.0444 c -6.36783,0.0109 -35.69501,1.22242 -38.02333,-1.96298 2.43891,-1.67564 5.85734,-0.90941 8.78502,-1.59368 2.275,-0.53123 4.11357,-1.805 5.28958,-3.84993 3.74624,-6.51594 3.03037,-92.41106 0.34559,-102.06106 -0.62306,-2.23945 -4.2913,-3.95854 -6.21379,-5.0911 z"
     id="path30"
     style="stroke-width:0.987414" />
  <path
     fill="rgb(209,220,230)"
     d="m 507.86459,594.75279 c -5.35574,-0.34362 -3.94275,0.39694 -8.03459,-2.21082 l 0.47791,-1.04469 c 4.56086,-0.26759 59.31888,0.39892 59.67632,0.60035 -2.57912,3.53001 -5.41794,2.77957 -9.54039,2.53272 l -0.51247,-0.68132 c -3.42928,-2.18514 -39.02851,-2.05086 -42.06678,0.80376 z"
     id="path31"
     style="fill:#ffffff;stroke-width:0.987414" />
  <path
     fill="#fefefe"
     d="m 739.37559,590.81992 c 16.65668,1.19971 30.85766,0.97754 47.46102,1.07825 16.64879,22.56142 39.54494,50.75702 57.62251,72.43668 l 2.93854,-1.13454 c 4.83635,4.34659 1.23328,39.48569 2.51001,48.6479 -4.80081,-2.197 -72.81979,-87.81466 -81.25329,-98.23878 l -5.62629,0.73562 c 1.26883,-15.00474 -12.02176,-19.0087 -23.6525,-23.52513 z"
     id="path32"
     style="stroke-width:0.987414" />
  <path
     fill="#fefefe"
     d="m 339.41674,594.18502 c -2.91978,0.46113 -3.93287,0.80376 -6.60382,-0.47099 l -0.60233,-1.44459 c 3.48557,-1.87411 49.48721,-0.68921 57.63929,-0.863 l 1.61936,0.92323 -0.10368,1.37152 c -2.65219,1.00124 -4.49273,1.11282 -7.33056,0.28536 -1.99951,1.36362 -4.6675,2.94743 -6.18219,4.82648 -4.56186,5.66282 -3.86079,86.45894 -2.19009,97.78457 1.77241,12.01584 9.35081,6.22466 15.62879,10.86353 l -0.41768,1.32609 c -11.33353,1.93139 -40.45631,-0.39694 -53.58595,0.45224 -2.1733,0.14021 -4.15405,-0.26858 -5.55717,-1.92842 3.84203,-2.77068 16.35256,1.88991 16.40391,-12.39895 0.10762,-30.23264 1.28363,-60.82666 -0.38608,-90.98524 -0.27154,-4.90844 -4.69318,-7.25651 -8.3318,-9.74183 z"
     id="path33"
     style="stroke-width:0.987414" />
  <path
     fill="rgb(209,220,230)"
     d="m 339.41674,594.18502 c -2.91978,0.46113 -3.93287,0.80376 -6.60382,-0.47099 l -0.60233,-1.44459 c 3.48557,-1.87411 49.48721,-0.68921 57.63929,-0.863 l 1.61936,0.92323 -0.10368,1.37152 c -2.65219,1.00124 -4.49273,1.11282 -7.33056,0.28536 -4.99335,-2.28685 -40.08603,-2.03407 -44.61826,0.19847 z"
     id="path34"
     style="fill:#ffffff;stroke-width:0.987414" />
  <path
     fill="rgb(209,220,230)"
     d="m 763.02809,613.57037 5.62629,-0.74937 c -1.49396,19.09934 1.53938,64.87722 -1.00025,79.82636 -0.85905,-0.73428 -1.72699,-1.3036 -2.64923,-1.95137 l -1.7576,1.59631 c -1.13355,-7.29856 -0.65959,-69.09279 -0.21921,-78.72193 z"
     id="path35"
     style="fill:#ffffff;stroke-width:0.996597" />
  <path
     fill="rgb(209,220,230)"
     d="m 845.03768,607.30006 5.35072,-0.90113 c 0.80863,8.21125 1.04646,101.66641 -0.57273,106.12507 -1.25517,-9.2804 2.28706,-44.8728 -2.46763,-49.27546 l -2.88892,1.14917 c 1.63667,-16.19644 -0.62031,-39.13093 0.57856,-57.09765 z"
     id="path36"
     style="fill:#ffffff;stroke-width:0.985337" />
  <path
     fill="#fefefe"
     d="m 640.39744,674.48775 c 1.569,2.22522 2.59431,3.35261 3.0579,6.05939 -1.77526,4.13313 -4.88223,13.27783 -4.32551,17.70479 2.42108,5.99207 9.51612,6.53485 15.39862,9.71912 -2.87267,2.18747 -34.89747,1.32635 -40.67784,1.30289 16.27574,-9.04676 19.02625,-17.94251 26.54683,-34.78619 z"
     id="path37"
     style="stroke-width:1.01073" />
  <path
     fill="#fefefe"
     d="m 763.2473,691.62301 1.7576,-1.56702 c 0.92224,0.63589 1.79018,1.19477 2.64923,1.91558 0.28931,1.13651 0.60429,2.2671 0.94495,3.38979 2.33326,7.61888 7.89734,9.18887 14.99289,12.98745 -3.47767,1.32709 -33.40124,1.73193 -38.09639,-0.22118 2.8398,-4.68923 12.54015,4.08691 17.75172,-16.50462 z"
     id="path38"
     style="stroke-width:0.987414" />
  <path
     fill="#fefefe"
     d="m 845.04762,607.96438 -0.0909,-0.30511 c -3.52111,-11.47276 -4.66849,-7.92498 -14.66704,-15.31182 0.65663,-0.34165 36.97173,-0.99038 41.35289,-1.21551 -11.4303,4.96965 -16.0751,3.08172 -21.15238,15.94278 z"
     id="path39"
     style="stroke-width:0.987414" />
  <path
     fill="#f0683a"
     d="m 244.93606,219.91276 c 39.85794,-9.59174 81.76773,-7.38388 119.22922,9.26984 44.18182,19.64262 30.13981,-11.24862 45.84562,-16.35651 5.37548,1.57888 7.61888,8.54508 7.02051,12.81268 -1.81882,12.96277 2.39546,93.21976 -1.47026,99.00106 -2.88621,0.64182 -5.6332,-0.50456 -8.03656,-2.10812 -4.94596,-3.30093 -11.69197,-25.81001 -14.82701,-32.25289 -19.89638,-40.88287 -63.08092,-57.57708 -106.39876,-50.47659 -17.87812,2.93065 -42.23564,23.33062 -52.3586,37.65799 -12.08402,17.10594 -23.48625,42.07759 -25.26496,76.54431 -2.17428,42.18429 1.51667,99.93417 31.05515,132.8032 15.86083,17.64805 36.87892,25.18991 60.20459,26.37185 38.18132,1.93631 63.55686,-14.63348 91.91143,-37.90879 -8.54211,-22.66411 -8.19454,-56.06733 1.8988,-78.28908 9.95906,-21.69051 28.00799,-38.62367 50.28799,-47.18159 52.37835,-19.61299 110.87472,1.85634 131.01796,56.38034 17.66779,47.82539 -3.53396,102.48861 -50.89723,123.30922 -27.96486,8.22983 -58.12601,8.6312 -85.13086,-2.91584 -13.91167,-6.43497 -29.3252,-19.68211 -38.18922,-32.53133 -4.11949,7.37894 -5.02988,9.68554 -12.1363,14.39353 -24.42466,21.30641 -47.64864,24.27853 -77.24439,28.04354 -111.49185,14.18123 -204.70963,-67.60526 -187.10601,-182.37828 3.18046,-20.73273 9.55125,-34.94457 18.41724,-53.6294 l 3.25846,-4.79291 c 15.38687,-25.89887 37.63824,-47.03743 64.2915,-61.07746 9.32316,-4.83339 18.62262,-8.31403 27.772,-12.94006 1.89188,0.0819 4.90251,-1.10887 6.84969,-1.74871 z m 244.81541,302.17329 c 42.67701,-12.35551 41.04382,-75.31104 37.49506,-111.07319 -1.69341,-17.07139 -8.43943,-40.93422 -25.01119,-49.82588 -8.19553,-4.39794 -18.78456,-4.31302 -27.92801,-3.97039 -42.76291,8.51842 -40.71304,86.05014 -34.55356,118.9014 4.40486,23.49255 20.2647,51.86094 48.59458,46.31464 0.47396,-0.0899 0.942,-0.20538 1.40312,-0.34658 z"
     id="path40"
     sodipodi:nodetypes="cccccccccccccccccccccccccccccccscc"
     style="stroke-width:0.987414" />
  <path
     fill="#f66e46"
     d="m 388.69757,508.43604 c 0.26265,-12.99634 14.67988,-2.06468 5.85833,-27.34247 l 0.73365,-1.09603 c 2.5258,1.99161 6.15751,10.60778 5.54432,14.04497 -4.11949,7.37894 -5.02988,9.68554 -12.1363,14.39353 z"
     id="path41"
     style="stroke-width:0.987414" />
  <path
     fill="#fefefe"
     d="m 250.80623,36.486538 c 26.53082,14.872721 54.7827,38.681439 63.92714,68.806542 12.49671,41.16893 -16.23802,45.88581 -48.27169,39.49823 40.43163,65.272 -37.96113,47.26256 -46.19912,54.15076 1.2629,1.90472 21.74581,19.10744 24.6735,20.97069 -1.94718,0.63984 -4.95781,1.83066 -6.84969,1.74871 -9.14938,4.62603 -18.44884,8.10667 -27.772,12.94006 -26.65326,14.04003 -48.90463,35.17859 -64.2915,61.07746 l -3.25846,4.79291 c -2.4557,-3.1775 -5.45843,-9.16024 -7.47473,-12.91241 -3.73242,-6.35796 -11.16369,-21.00822 -15.33947,-25.66585 l -1.37744,-0.0622 c -2.32931,4.30118 -2.71539,13.59965 -3.93386,18.81616 -4.7149,20.38516 -8.48188,40.54815 -27.088606,53.01622 C 65.069164,348.72879 37.109557,337.258 23.188801,316.27941 9.836252,296.1579 8.320285,268.66731 12.848022,245.67834 c 0.478925,-8.03063 8.608065,-25.41899 13.235876,-32.31706 15.118588,-22.53574 34.155135,-35.23586 60.420241,-40.79105 l 4.559285,-0.69909 1.908376,-1.18193 c 1.30289,-4.1501 0.44483,-36.73772 2.42282,-48.03373 0.0293,-2.85382 1.47193,-8.96207 2.2508,-11.84946 8.5363,-31.131279 29.41911,-58.6976 58.02251,-73.92352 8.90153,-4.738322 68.04718,-12.651194 95.1383,-0.395962 z"
     id="path42"
     style="stroke-width:0.987414"
     sodipodi:nodetypes="cccccccccccccccccccccccc" />
  <path
     fill="#5b5b5d"
     d="m 250.80623,36.486538 c 26.53082,14.872721 54.7827,38.681439 63.92714,68.806542 12.49671,41.16893 -16.23802,45.88581 -48.27169,39.49823 40.43163,65.272 -37.96113,47.26256 -46.19912,54.15076 1.2629,1.90472 21.74581,19.10744 24.6735,20.97069 -1.94718,0.63984 -4.95781,1.83066 -6.84969,1.74871 -5.05062,-5.31525 -19.11831,-18.44094 -25.33901,-21.52167 -1.28759,-0.74747 -4.38313,-1.74476 -5.9156,-2.2908 -3.93089,-5.83068 -7.66134,-3.56753 -10.30662,-8.88672 6.06667,-3.94176 39.87769,5.69737 57.32134,-5.96497 28.57378,-19.10251 -8.03261,-43.60814 -5.49101,-53.16729 3.07678,-0.3535 19.44218,5.64702 24.50267,6.37869 49.9503,7.22589 36.58072,-30.99719 16.25579,-57.330131 C 254.12394,33.543788 190.99759,13.489573 143.34007,52.80977 c -31.33064,25.849702 -39.49576,51.39933 -43.76721,90.01264 -0.35695,-8.44239 -1.50374,-12.25085 -4.17824,-20.16694 0.0293,-2.85382 1.47193,-8.96206 2.2508,-11.84946 8.5363,-31.131279 29.41911,-58.6976 58.02251,-73.92352 23.5752,-13.784519 63.62938,-18.061518 95.1383,-0.395952 z"
     id="path43"
     sodipodi:nodetypes="ccccccccccccccccccc"
     style="stroke-width:0.987414" />
  <path
     fill="#fefefe"
     d="m 212.74736,200.1398 c 6.2207,3.08073 20.28839,16.20642 25.33901,21.52167 -9.14938,4.62603 -18.44884,8.10667 -27.772,12.94006 -26.65326,14.04003 -48.90463,35.17859 -64.2915,61.07746 l -3.25846,4.79291 c -2.4557,-3.1775 -5.45843,-9.16024 -7.47473,-12.91241 l 2.2049,-4.58654 c -1.01111,-3.47866 -12.39303,-23.28223 -14.64137,-27.2773 6.89313,-5.81488 16.30516,-13.55621 24.12449,-17.59868 27.05415,-13.98869 42.80932,-16.68828 65.76966,-37.95717 z"
     id="path44"
     style="stroke-width:0.987414" />
  <path
     fill="#393f40"
     d="m 137.49458,282.97295 c 3.14689,5.67565 4.35548,7.79366 8.52829,12.70604 l -3.25846,4.79291 c -2.4557,-3.1775 -5.45843,-9.16024 -7.47473,-12.91241 z"
     id="path45"
     style="stroke-width:0.987414" />
  <path
     fill="url(#Gradient2)"
     d="m 206.83176,197.849 c 1.53247,0.54604 4.62801,1.54333 5.9156,2.2908 -22.96034,21.26889 -38.71551,23.96848 -65.76966,37.95717 -7.81933,4.04247 -17.23136,11.7838 -24.12449,17.59868 2.24834,3.99507 13.63026,23.79864 14.64137,27.2773 l -2.2049,4.58654 c -3.73242,-6.35796 -11.16369,-21.00822 -15.33947,-25.66585 l -1.37744,-0.0622 c -2.32931,4.30118 -2.71539,13.59965 -3.93386,18.81616 -4.7149,20.38516 -8.48188,40.54815 -27.088606,53.01622 C 65.069164,348.72879 37.109557,337.258 23.188801,316.27941 9.836252,296.1579 8.320285,268.66731 12.848022,245.67834 c 0.973935,0.69613 3.661359,2.51593 4.354484,3.25156 -3.753436,16.00597 -4.138735,22.9623 1.025726,39.26352 14.544999,45.90782 54.377072,59.51833 79.845038,12.78799 1.35345,-2.48334 3.81794,-8.03952 2.82252,-10.81712 -2.66453,-0.26166 -8.34759,3.75415 -11.987989,5.30044 l -1.222616,-0.69119 c -0.04473,-5.39523 6.983975,-15.25752 9.930815,-19.42045 20.43443,-28.87099 46.46364,-42.37782 77.44671,-56.64497 10.49127,-4.83042 23.72656,-12.30416 31.76905,-20.85911 z"
     id="path46"
     style="fill:url(#Gradient2);stroke-width:0.987414" />
  <path
     fill="#5b5b5d"
     d="m 12.848022,245.67833 c 0.478925,-8.03063 8.608065,-25.41899 13.235876,-32.31706 15.118588,-22.53574 34.155135,-35.23586 60.420241,-40.79105 0.55937,3.32363 1.082601,3.92694 -1.504423,6.74502 -27.894636,9.46634 -46.883589,23.46194 -60.291384,50.45487 -3.00707,6.17726 -5.516977,12.5836 -7.505826,19.15978 -0.693125,-0.73563 -3.380549,-2.55543 -4.354484,-3.25156 z"
     id="path47"
     style="stroke-width:0.987414" />
  <path
     fill="url(#Gradient1)"
     d="m 95.39462,122.65547 c 2.6745,7.91609 3.82129,11.72455 4.17824,20.16694 0.02,10.55545 0.85283,58.44205 -14.389387,60.00513 -1.336365,-3.40658 6.236999,-18.94255 8.012167,-24.58562 -1.958728,0.0918 -6.079008,0.78401 -8.195924,1.07332 2.587024,-2.81808 2.063793,-3.42139 1.504423,-6.74502 l 4.559285,-0.69909 1.908376,-1.18193 c 1.30289,-4.1501 0.44483,-36.73772 2.42282,-48.03373 z"
     id="path48"
     style="fill:url(#Gradient1);stroke-width:0.987414" />
  <path
     fill="#393f40"
     d="m 86.504139,172.57022 4.559285,-0.69909 c 2.989986,2.67194 3.360166,2.06172 3.654416,5.09999 l -1.5222,1.2708 c -1.958728,0.0918 -6.079008,0.78401 -8.195924,1.07332 2.587024,-2.81808 2.063793,-3.42139 1.504423,-6.74502 z"
     id="path49"
     style="stroke-width:0.987414" />
  <path
     fill="#f0683a"
     d="m 1071.349,479.88497 25.9394,-63.65264 c 4.9864,-12.11161 10.6246,-24.68337 14.4853,-37.12873 5.2827,-17.03683 -8.4226,-15.62483 -16.9242,-20.00698 l -0.01,-2.31647 c 0.3752,-0.5569 1.6885,-2.42607 2.0834,-2.52185 10.2296,-2.44879 54.4765,-0.98023 62.4647,0.50382 l 0.5243,3.14604 -3.912,4.2662 c -14.4557,2.05284 -21.18,18.81912 -25.9789,30.65426 -6.0725,14.98104 -11.9575,30.0391 -18.0203,45.02607 -17.4871,42.07666 -34.5298,84.33797 -51.1184,126.77701 2.5476,4.77513 4.5816,7.66529 7.7019,12.09088 5.0061,0.1412 20.3604,0.26068 24.32,1.13059 -8.4523,0.40484 -54.8509,0.27648 -58.8598,2.90398 l -0.859,-3.67614 c 4.7494,-0.68329 25.732,-0.15996 31.6861,-0.11651 -2.0736,-4.46904 -3.8608,-8.69418 -7.7907,-11.64556 -4.236,-3.18737 -13.3202,-7.89042 -15.8677,-11.86871 2.3006,-1.62529 12.6783,-28.77423 13.7941,-33.01023 -5.0259,-7.30785 -14.4458,-28.3289 -18.7707,-37.41113 l -33.1475,-69.74103 c -9.885,-20.86899 -17.53152,-41.91967 -38.99493,-52.39613 -2.09925,-1.02493 -2.46558,-3.47174 -2.77266,-5.48607 l 1.73093,-1.55814 c 5.68849,-1.74574 75.91926,-1.07332 81.86356,0.64577 1.8069,2.55839 1.3823,1.39719 1.7279,4.40584 -3.9398,3.6327 -10.3481,3.38979 -15.2851,4.98743 -2.3007,0.74451 -4.5125,2.1733 -5.5789,4.42065 -6.3096,13.23727 39.4472,92.63521 45.5691,111.57775 z"
     id="path50"
     style="stroke-width:0.987414"
     sodipodi:nodetypes="cccccccccccccccccccccccccccscsc" />
  <path
     fill="#985b32"
     d="m 1057.0809,565.31897 c 0.9973,-6.14171 7.6821,-21.81296 10.2098,-28.08303 l 20.5383,-50.50227 c 14.0212,-34.25634 27.6953,-68.6626 41.9141,-102.836 7.0304,-16.90551 13.3772,-19.17965 30.1632,-25.98589 l -3.9375,4.24699 c -14.4557,2.05284 -21.1488,18.83474 -25.9477,30.66988 -6.0725,14.98104 -11.9575,30.0391 -18.0203,45.02607 -17.4871,42.07666 -34.5298,84.33797 -51.1184,126.77701 2.5476,4.77513 4.5816,7.66529 7.7019,12.09088 5.0061,0.1412 20.3604,0.26068 24.32,1.13059 -8.4523,0.40484 -54.8509,0.27648 -58.8598,2.90398 l -0.859,-3.67614 c 4.7494,-0.68329 25.732,-0.15996 31.6861,-0.11651 -2.0736,-4.46904 -3.8608,-8.69418 -7.7907,-11.64556 z"
     id="path51"
     style="stroke-width:0.987414"
     sodipodi:nodetypes="ccccccccccccccc" />
</svg>
