<?xml version="1.0" encoding="UTF-8" standalone="no"?>
<!-- Created with Inkscape (http://www.inkscape.org/) -->

<svg
   width="1024mm"
   height="1024mm"
   viewBox="0 0 1024 1024"
   version="1.1"
   id="svg1"
   inkscape:version="1.4.2 (f4327f4, 2025-05-13)"
   sodipodi:docname="coney-vector-1024.svg"
   inkscape:export-filename="coney-vector-favicon-1024.png"
   inkscape:export-xdpi="25.4"
   inkscape:export-ydpi="25.4"
   xmlns:inkscape="http://www.inkscape.org/namespaces/inkscape"
   xmlns:sodipodi="http://sodipodi.sourceforge.net/DTD/sodipodi-0.dtd"
   xmlns="http://www.w3.org/2000/svg"
   xmlns:svg="http://www.w3.org/2000/svg">
  <sodipodi:namedview
     id="namedview1"
     pagecolor="#000000"
     bordercolor="#000000"
     borderopacity="0.25"
     inkscape:showpageshadow="2"
     inkscape:pageopacity="0.0"
     inkscape:pagecheckerboard="0"
     inkscape:deskcolor="#d1d1d1"
     inkscape:document-units="mm"
     inkscape:zoom="0.27059659"
     inkscape:cx="1189.9633"
     inkscape:cy="1812.6614"
     inkscape:window-width="3539"
     inkscape:window-height="1401"
     inkscape:window-x="497"
     inkscape:window-y="0"
     inkscape:window-maximized="0"
     inkscape:current-layer="g1" />
  <defs
     id="defs1">
    <linearGradient
       id="Gradient1"
       gradientUnits="userSpaceOnUse"
       x1="95.063202"
       y1="147.705"
       x2="76.982597"
       y2="140.14999"
       gradientTransform="matrix(0.75932225,0,0,0.75932225,301.54964,267.88876)">
      <stop
         class="stop0"
         offset="0"
         stop-opacity="1"
         stop-color="rgb(55,64,65)"
         id="stop1" />
      <stop
         class="stop1"
         offset="1"
         stop-opacity="1"
         stop-color="rgb(80,75,71)"
         id="stop2" />
    </linearGradient>
    <linearGradient
       id="Gradient2"
       gradientUnits="userSpaceOnUse"
       x1="105.489"
       y1="178.17599"
       x2="108.539"
       y2="314.87201"
       gradientTransform="matrix(0.75932225,0,0,0.75932225,301.54964,267.88876)">
      <stop
         class="stop0"
         offset="0"
         stop-opacity="1"
         stop-color="rgb(69,70,69)"
         id="stop3" />
      <stop
         class="stop1"
         offset="1"
         stop-opacity="1"
         stop-color="rgb(97,96,96)"
         id="stop4" />
    </linearGradient>
  </defs>
  <g
     inkscape:label="Layer 1"
     inkscape:groupmode="layer"
     id="layer1">
    <g
       id="g1"
       transform="matrix(2.2331196,0,0,2.2331196,-531.85911,-522.34317)">
      <path
         fill="#f0683a"
         d="m 484.79148,417.76151 c 30.65079,-7.37619 62.87953,-5.67825 91.68738,7.12842 33.97592,15.10521 23.17762,-8.65015 35.25531,-12.57811 4.13378,1.21408 5.85903,6.5711 5.39881,9.85299 -1.39866,9.96835 1.84213,71.68603 -1.13072,76.13183 -2.21946,0.49361 -4.3319,-0.38803 -6.18011,-1.62115 -3.8035,-2.53835 -8.9911,-19.84786 -11.40203,-24.80241 -15.30036,-31.43906 -48.50924,-44.27684 -81.82074,-38.81661 -13.74831,2.25366 -32.47922,17.94122 -40.26382,28.95904 -9.29323,13.15562 -18.06108,32.35856 -19.42874,58.86272 -1.6721,32.43973 1.16632,76.8494 23.88142,102.12566 12.19698,13.57146 28.35991,19.37115 46.29736,20.28009 29.3615,1.48901 77.84532,-14.27025 77.59131,-14.71639 -3.16789,5.67432 -4.49453,6.66484 -9.33273,11.06855 -18.78267,16.38471 -36.64193,18.67029 -59.40111,21.56554 -85.7373,10.90542 -157.42185,-51.98858 -143.88472,-140.24908 2.44582,-15.94356 7.34493,-26.8724 14.16295,-41.24108 l 2.50575,-3.68574 c 11.83253,-19.91627 28.94376,-36.17185 49.4402,-46.96867 7.16955,-3.71683 14.32084,-6.39352 21.35676,-9.9509 1.45478,0.0574 3.76998,-0.85293 5.26734,-1.3447 z"
         id="path40"
         style="display:block;stroke-width:0.759322"
         sodipodi:nodetypes="sccccccsccccccccccccss" />
      <path
         fill="#fefefe"
         d="m 489.30523,276.70669 c 20.40221,11.43716 42.12786,29.74607 49.15999,52.91232 9.60998,31.65903 -12.48707,35.28619 -37.12095,30.37422 31.09194,50.19421 -29.19219,36.34497 -35.52718,41.64195 0.97117,1.46478 16.72257,14.69366 18.97393,16.12655 -1.49738,0.49246 -3.81257,1.40772 -5.26737,1.34471 -7.03591,3.55738 -14.18719,6.23406 -21.35672,9.9509 -20.49645,10.79683 -37.60771,27.0524 -49.44022,46.9687 l -2.50575,3.68571 c -1.8885,-2.44352 -4.19761,-7.0443 -5.74816,-9.92966 -2.87019,-4.88925 -8.58481,-16.15536 -11.796,-19.73709 l -1.05955,-0.0459 c -1.79115,3.30772 -2.0881,10.45819 -3.02507,14.4697 -3.62579,15.6762 -6.52256,31.1816 -20.8312,40.76952 -17.28804,11.58497 -38.78895,2.7639 -49.49407,-13.36865 -10.26807,-15.47344 -11.43395,-36.61378 -7.95207,-54.29237 0.36849,-6.17551 6.61966,-19.5472 10.17844,-24.85177 11.62621,-17.33004 26.26535,-27.09648 46.46323,-31.36835 l 3.50606,-0.53725 1.46754,-0.90918 c 1.00216,-3.19141 0.3421,-28.25133 1.86314,-36.93799 0.0229,-2.19464 1.13186,-6.89183 1.73087,-9.11221 6.56443,-23.94008 22.62336,-45.13861 44.61938,-56.84727 5.97461,-3.18036 56.76951,-8.80836 73.16173,-0.30659 z"
         id="path42"
         style="display:block;stroke-width:0.759322"
         sodipodi:nodetypes="ccccccccccccccccccccccsc" />
      <path
         fill="#5b5b5d"
         d="m 489.30523,276.70669 c 20.40221,11.43717 42.12786,29.74609 49.15999,52.91232 9.60998,31.65901 -12.48707,35.28621 -37.12095,30.37423 31.09194,50.1942 -29.19219,36.34496 -35.52718,41.64196 0.97117,1.46479 16.72257,14.69367 18.97393,16.12653 -1.49738,0.49248 -3.81257,1.40774 -5.26737,1.34472 -3.88399,-4.08739 -14.70206,-14.18112 -19.48579,-16.55014 -0.99067,-0.57513 -3.37062,-1.34172 -4.5491,-1.76165 -3.02279,-4.48378 -5.89151,-2.74348 -7.92581,-6.83398 4.66529,-3.03117 30.66604,4.38138 44.08021,-4.58699 21.97328,-14.68987 -6.17714,-33.53477 -4.22265,-40.88567 2.36606,-0.27208 14.95105,4.34246 18.84261,4.90518 38.41183,5.55668 28.13068,-23.83686 12.50074,-44.08696 -21.32854,-27.63436 -56.25204,-43.0537 -88.06966,-33.19992 -8.32231,2.57738 -16.43212,6.88383 -24.03059,13.15302 -24.0933,19.8784 -30.37229,39.52614 -33.65703,69.21976 -0.27435,-6.49213 -1.15633,-9.42089 -3.21313,-15.50838 0.0229,-2.19466 1.1319,-6.89184 1.7309,-9.1122 6.56446,-23.94006 22.62337,-45.13862 44.6194,-56.84727 22.52042,-14.41613 49.55985,-11.85501 73.16148,-0.30456 z"
         id="path43"
         style="display:block;stroke-width:0.759322"
         sodipodi:nodetypes="cccccccccccccsscccsc" />
      <path
         fill="#fefefe"
         d="m 460.0383,402.55607 c 4.78376,2.36903 15.60182,12.46273 19.48579,16.55014 -7.03591,3.55738 -14.18717,6.23407 -21.3567,9.9509 -20.49645,10.79682 -37.6077,27.0524 -49.44021,46.96867 l -2.50577,3.68574 c -1.88848,-2.44352 -4.1976,-7.04428 -5.74814,-9.92967 l 1.69564,-3.52708 c -0.77716,-2.67508 -9.53027,-17.90403 -11.25922,-20.9763 5.30079,-4.4716 12.53862,-10.42466 18.55171,-13.53333 20.80468,-10.75732 32.92038,-12.83328 50.5769,-29.18907 z"
         id="path44"
         style="display:block;stroke-width:0.759322"
         sodipodi:nodetypes="cccccccccc" />
      <path
         fill="#393f40"
         d="m 402.16891,466.25477 c 2.41988,4.36463 3.34938,5.99334 6.55827,9.77101 l -2.50577,3.68574 c -1.88848,-2.44352 -4.1976,-7.04428 -5.74814,-9.92967 z"
         id="path45"
         style="display:block;stroke-width:0.759322"
         sodipodi:nodetypes="ccccc" />
      <path
         fill="url(#Gradient2)"
         d="m 455.48919,400.79442 c 1.17849,0.42015 3.55903,1.18674 4.54911,1.76165 -17.65652,16.35579 -29.77222,18.43175 -50.5769,29.18907 -6.01309,3.10867 -13.25092,9.06173 -18.55171,13.53333 1.72895,3.07227 10.48161,18.30122 11.25922,20.9763 l -1.69564,3.52708 c -2.87022,-4.88923 -8.58484,-16.15535 -11.796,-19.73709 l -1.05956,-0.0459 c -1.79114,3.30771 -2.08812,10.45818 -3.02509,14.4697 -3.62579,15.67621 -6.52254,31.18158 -20.83118,40.76952 -17.28804,11.58495 -38.78896,2.76385 -49.49405,-13.36864 -10.26807,-15.47347 -11.43394,-36.61381 -7.95209,-54.29238 0.74846,0.53495 2.81556,1.93477 3.34856,2.50048 -2.88629,12.30867 -3.18269,17.65801 0.78865,30.19377 11.18508,35.30307 41.81599,45.76964 61.40084,9.83393 1.0412,-1.90975 2.936,-6.18242 2.17056,-8.3184 -2.049,-0.20089 -6.41936,2.88696 -9.21876,4.07601 l -0.94017,-0.53148 c -0.0345,-4.14894 5.37069,-11.73301 7.63675,-14.93428 15.71407,-22.20188 35.73057,-32.58864 59.55666,-43.56009 8.06781,-3.71464 18.24565,-9.46199 24.43037,-16.04066 z"
         id="path46"
         style="display:block;fill:url(#Gradient2);stroke-width:0.759322"
         sodipodi:nodetypes="cccccccccccccccccccccc" />
      <path
         fill="#5b5b5d"
         d="m 306.31553,437.57514 c 0.36849,-6.17552 6.61966,-19.54721 10.17845,-24.85178 11.62619,-17.33005 26.26534,-27.09647 46.46321,-31.36835 0.43048,2.55579 0.83227,3.0198 -1.15691,5.1869 -21.45097,7.27962 -36.0535,18.04225 -46.36416,38.79986 -2.31245,4.75034 -4.24261,9.67678 -5.77203,14.73384 -0.53264,-0.56593 -2.59965,-1.96505 -3.34856,-2.50047 z"
         id="path47"
         style="display:block;stroke-width:0.759322"
         sodipodi:nodetypes="ccccccc" />
      <path
         fill="url(#Gradient1)"
         d="m 369.79393,342.97049 c 2.05679,6.08747 2.93865,9.01625 3.21311,15.50835 0.0114,8.11719 0.65548,44.9421 -11.06543,46.144 -1.02745,-2.61961 4.79623,-14.56681 6.1614,-18.9063 -1.50634,0.069 -4.67481,0.60268 -6.30273,0.82537 1.9894,-2.1671 1.58704,-2.63111 1.15691,-5.1869 l 3.50608,-0.53724 1.46753,-0.90919 c 1.00216,-3.19143 0.3421,-28.25132 1.86313,-36.93799 z"
         id="path48"
         style="display:block;fill:url(#Gradient1);stroke-width:0.759322"
         sodipodi:nodetypes="ccccccccsc" />
      <path
         fill="#393f40"
         d="m 362.95719,381.35501 3.50608,-0.53724 c 2.29934,2.05472 2.58404,1.58544 2.8103,3.92187 l -1.17056,0.9769 c -1.50634,0.069 -4.67481,0.60268 -6.30273,0.82537 1.9894,-2.1671 1.58704,-2.63111 1.15691,-5.1869 z"
         id="path49"
         style="display:block;stroke-width:0.759322"
         sodipodi:nodetypes="cccccc" />
    </g>
  </g>
</svg>
